<?xml version="1.0" encoding="UTF-8"?>
<svg width="100%" height="100%" viewBox="0 0 600 180" xmlns="http://www.w3.org/2000/svg">
    <path d="M374.003 141.422c-34.912 25.697-85.657 39.368-129.335 39.368-61.127 0-116.143-22.576-157.764-60.157-3.271-2.958-.341-6.992 3.578-4.697 44.912 26.131 100.465 41.886 157.764 41.886 38.688 0 81.186-8.027 120.309-24.612 5.883-2.491 10.844 3.853 5.448 8.212z" fill="#FF9900"/>
    <path d="M388.971 124.38c-4.457-5.715-29.497-2.701-40.752-1.363-3.417.417-3.944-2.563-.862-4.712 19.965-14.033 52.691-9.984 56.512-5.285 3.821 4.716-.996 37.408-19.669 53.024-2.867 2.399-5.592 1.121-4.32-2.051 4.189-10.464 13.553-33.898 9.091-39.613z" fill="#FF9900"/>
    <path d="M348.52 20.056v-13.89c0-2.109 1.596-3.51 3.507-3.51h62.001c1.987 0 3.584 1.428 3.584 3.51v11.871c-.024 1.989-1.699 4.589-4.668 8.717l-32.112 45.853c11.919-.287 24.513 1.486 35.373 7.495 2.443 1.349 3.099 3.325 3.291 5.275v14.785c0 1.98-2.176 4.287-4.453 3.087-18.583-9.749-43.244-10.804-63.769.097-2.095 1.121-4.288-1.135-4.288-3.115v-14.048c0-2.192.024-5.945 2.227-9.271l37.194-53.346h-32.357c-1.987 0-3.53-1.401-3.53-3.51zm-205.203 84.662h-18.872c-1.796-.128-3.22-1.465-3.347-3.171v-95.665c0-1.916 1.604-3.434 3.592-3.434h17.582c1.811.104 3.259 1.466 3.386 3.171v12.495h.359c4.582-12.214 13.209-17.91 24.833-17.91 11.797 0 19.181 5.696 24.457 17.91 4.558-12.214 14.924-17.91 26.006-17.91 7.898 0 16.519 3.246 21.795 10.578 5.972 8.093 4.747 19.83 4.747 30.147l-.015 60.397c0 1.916-1.604 3.411-3.592 3.411h-18.84c-1.867-.128-3.347-1.621-3.347-3.411v-50.657c0-4.023.359-14.078-.524-17.911-1.391-6.437-5.558-8.246-10.959-8.246-4.506 0-9.212 3.015-11.122 7.837-1.916 4.822-1.735 12.87-1.735 18.32v50.657c0 1.916-1.604 3.411-3.593 3.411h-18.84c-1.875-.128-3.347-1.621-3.347-3.411l-.015-50.657c0-10.633 1.751-26.293-11.483-26.293-13.396 0-12.872 15.276-12.872 26.293v50.657c0 1.916-1.604 3.411-3.592 3.411zm322.815-96.292c28.037 0 43.197 24.087 43.197 54.721 0 29.594-16.764 53.078-43.197 53.078-27.525 0-42.509-24.087-42.509-54.107 0-30.201 15.159-53.692 42.509-53.692zm.157 19.874c-13.911 0-14.805 18.937-14.805 30.762 0 11.833-.181 37.088 14.648 37.088 14.648 0 15.327-20.426 15.327-32.85 0-8.194-.359-18.005-2.827-25.776-2.118-6.738-6.338-9.224-12.343-9.224zm71.839 76.419h-18.817c-1.868-.128-3.348-1.621-3.348-3.411l-.014-95.665c.156-1.705 1.702-3.038 3.592-3.038h17.506c1.624.077 2.961 1.181 3.322 2.677v14.623h.358c5.278-13.233 12.701-19.519 25.744-19.519 8.481 0 16.775 3.065 22.075 11.471 4.934 7.77 4.934 20.847 4.934 30.251v61.199c-.21 1.678-1.756 3.014-3.592 3.014h-18.905c-1.726-.128-3.144-1.41-3.347-3.014v-52.787c0-10.633 1.236-26.177-11.858-26.177-4.582 0-8.801 3.066-10.896 7.742-2.649 5.902-2.985 11.803-2.985 18.435v51.401c-.024 1.916-1.645 3.411-3.633 3.411zm-236.02-51.386c0 7.317.181 13.428-3.527 19.927-2.985 5.285-7.743 8.529-13.021 8.529-7.226 0-11.445-5.516-11.445-13.657 0-16.058 14.391-18.971 27.993-18.971v4.172zm18.97 45.912c-1.247 1.102-3.042.117-3.226-1.389-4.582-6.037-5.403-8.826-7.925-14.576-7.564 7.726-12.936 10.044-22.735 10.044-11.625 0-20.664-7.173-20.664-21.52 0-11.213 6.082-18.84 14.744-22.576 7.484-3.298 17.955-3.888 25.954-4.797v-1.781c0-3.297.254-7.173-1.678-10.006-1.678-2.55-4.891-3.609-7.72-3.609-5.246 0-9.908 2.679-11.054 8.245-.235 1.234-1.15 2.447-2.397 2.511l-18.2-1.965c-1.533-.34-3.236-1.573-2.792-3.906 4.172-21.994 24.041-28.63 41.832-28.63 9.098 0 20.982 2.423 28.152 9.321 9.098 8.501 8.234 19.833 8.234 32.177v29.16c0 8.766 3.644 12.613 7.068 17.35 1.209 1.678 1.474 3.689-.063 4.951-3.836 3.201-10.664 9.146-14.43 12.47l-.1-.001z" fill="#221F1F"/>
</svg> 