<?xml version="1.0" encoding="UTF-8"?>
<svg width="100%" height="100%" viewBox="0 0 342 342" xmlns="http://www.w3.org/2000/svg">
    <path fill="#E82127" d="M171 0c94.44 0 171 76.56 171 171s-76.56 171-171 171S0 265.44 0 171 76.56 0 171 0z"/>
    <path fill="#fff" d="M171 26.25c79.94 0 144.75 64.81 144.75 144.75S250.94 315.75 171 315.75 26.25 250.94 26.25 171 91.06 26.25 171 26.25"/>
    <path fill="#E82127" d="M238.49 114.17c26.25 0 50.63 5.25 71.44 15.75-6.56-39.38-40.69-69.56-82.69-69.56h-112.5c-42 0-76.13 30.19-82.69 69.56 20.81-10.5 45.19-15.75 71.44-15.75h135z"/>
    <path fill="#E82127" d="M171 198.56l-25.31-31.5h50.63l-25.32 31.5zm0-126v94.5h-25.31l25.31-31.5-25.31-31.5h50.63l-25.32 31.5 25.32 31.5h-25.32v-94.5h25.32l-25.32 31.5 25.32 31.5h-50.63l25.31-31.5-25.31-31.5h25.31z"/>
</svg> 